<?xml version="1.0" encoding="UTF-8" standalone="no"?>
<svg width="202px" height="76px" viewBox="0 0 202 76" version="1.1" xmlns="http://www.w3.org/2000/svg" xmlns:xlink="http://www.w3.org/1999/xlink">
    <!-- Generator: Sketch 41.2 (35397) - http://www.bohemiancoding.com/sketch -->
    <title>mozilla-galaxy-logo</title>
    <desc>Created with Sketch.</desc>
    <defs></defs>
    <g id="Page-1" stroke="none" stroke-width="1" fill="none" fill-rule="evenodd">
        <g id="mozilla-galaxy-logo">
            <g id="vr-icon" transform="translate(0.000000, 2.000000)" fill="#FF4F5E">
                <g id="Icon-with-Highlight">
                    <g id="Group">
                        <path d="M33.9784829,25.0838824 C37.1661727,25.6448824 40.3233218,26.4475588 43.4241613,27.489 C40.7423025,29.6534118 37.4372218,30.888 33.9775285,31.0005882 L33.9775285,25.0838824 L33.9784829,25.0838824 Z M22.7013144,22.2885882 C19.5203053,22.2885882 16.3622019,22.5137647 13.2375023,22.9602353 L13.2375023,8.64211765 L11.8937097,8.43829412 C8.48650833,7.91902941 5.2033787,6.82905882 2.1626662,5.23826471 C8.79096134,2.96320588 15.69126,1.80820588 22.7013144,1.80820588 C29.7104144,1.80820588 36.6116674,2.96320588 43.2399625,5.23826471 C40.19925,6.83002941 36.9142116,7.91902941 33.5079646,8.43732353 L32.1622632,8.64114706 L32.1622632,22.9602353 C29.0385181,22.5137647 25.8804146,22.2885882 22.70036,22.2885882 L22.7013144,22.2885882 Z M11.4241458,31.0005882 C7.96254375,30.888 4.65937176,29.6543824 1.97751296,27.489 C5.07930694,26.4475588 8.23550162,25.6448824 11.4231914,25.0838824 L11.4231914,31.0005882 L11.4241458,31.0005882 Z M11.4241458,23.2455882 C8.17442014,23.8027059 4.96573356,24.5966471 1.81335648,25.6332353 L1.81335648,7.10470588 C4.83211782,8.62561765 8.05225718,9.66026471 11.4241458,10.1940882 L11.4241458,23.2455882 L11.4241458,23.2455882 Z M33.9784829,23.2455882 L33.9784829,10.1950588 C37.3494171,9.66123529 40.5695565,8.62658824 43.5873634,7.10664706 L43.5873634,25.6351765 C40.4359407,24.5985882 37.2272542,23.8046471 33.9784829,23.2475294 L33.9784829,23.2455882 Z M45.3148241,4.05705882 C38.010815,1.35202941 30.3555875,0 22.7013144,0 C15.0470412,0 7.39085926,1.35202941 0.0868502315,4.05511765 L0.000954398148,4.00367647 L0.000954398148,28.1839412 L0.00477199074,28.1839412 C3.26308727,31.1636471 7.5254294,32.8175294 11.9490648,32.8175294 L13.2375023,32.8175294 L13.2375023,24.7946471 C16.3755634,24.3336176 19.5384389,24.0987353 22.7013144,24.0987353 C25.8632354,24.0987353 29.0261109,24.3336176 32.164172,24.7946471 L32.164172,32.8185 L33.4545183,32.8185 C37.8781537,32.8185 42.1395414,31.1655882 45.3988111,28.1849118 L45.4026287,28.1849118 L45.4026287,4.00755882 L45.3167329,4.059 L45.3148241,4.05705882 Z" id="Shape"></path>
                    </g>
                </g>
            </g>
            <g id="Group-2" transform="translate(54.000000, 0.000000)">
                <path d="M32.276,21.376 L32.276,17.584 L18.692,17.584 L18.692,21.376 L25.748,21.376 L25.748,23.392 C25.748,27.28 22.628,30.592 17.348,30.592 C11.06,30.592 6.884,25.936 6.884,18.448 C6.884,11.008 11.3,6.208 17.732,6.208 C21.044,6.208 23.54,7.168 25.268,8.272 L26.18,12.496 L29.78,12.112 L28.916,6.016 C26.66,3.904 22.676,2.32 17.684,2.32 C8.228,2.32 2.228,9.616 2.228,18.544 C2.228,27.52 7.988,34.48 16.58,34.48 C21.044,34.48 24.404,32.608 26.228,29.968 L26.756,34 L30.116,34 L30.116,21.376 L32.276,21.376 Z M37.9130733,14.176 L37.0490733,19.312 L40.4570733,19.696 L41.2730733,16.192 C42.4730733,15.568 43.7690733,15.376 45.1610733,15.376 C48.9050733,15.376 49.6250733,17.68 49.6250733,20.464 L49.6250733,22.048 C48.5210733,21.904 47.2250733,21.856 45.9290733,21.856 C41.0810733,21.856 35.8970733,23.056 35.8970733,28.432 C35.8970733,32.944 39.5450733,34.48 42.4730733,34.48 C45.9290733,34.48 48.3290733,32.368 49.6250733,30.112 L49.6250733,30.16 C49.7690733,32.8 51.1610733,34.48 53.7530733,34.48 C54.8570733,34.48 56.0090733,34.192 56.8730733,33.664 L56.8250733,31.168 C56.4410733,31.312 55.9130733,31.408 55.5290733,31.408 C54.3770733,31.408 53.8490733,30.784 53.8490733,29.296 L53.8490733,19.36 C53.8490733,14.464 50.7770733,12.112 45.9290733,12.112 C42.9050733,12.112 40.5530733,12.64 37.9130733,14.176 Z M49.6250733,25.744 C49.3850733,29.2 46.5530733,31.216 43.8170733,31.216 C41.9450733,31.216 40.2650733,30.256 40.2650733,27.952 C40.2650733,24.928 43.0010733,24.256 45.9290733,24.256 C47.2250733,24.256 48.4730733,24.4 49.6250733,24.496 L49.6250733,25.744 Z M70.3821466,34 L70.3821466,30.736 L66.9261466,30.736 L66.9261466,0.976 L59.1021466,0.976 L59.1021466,4.288 L62.7021466,4.288 L62.7021466,30.736 L59.2461466,30.736 L59.2461466,34 L70.3821466,34 Z M75.6832199,14.176 L74.8192199,19.312 L78.2272199,19.696 L79.0432199,16.192 C80.2432199,15.568 81.5392199,15.376 82.9312199,15.376 C86.6752199,15.376 87.3952199,17.68 87.3952199,20.464 L87.3952199,22.048 C86.2912199,21.904 84.9952199,21.856 83.6992199,21.856 C78.8512199,21.856 73.6672199,23.056 73.6672199,28.432 C73.6672199,32.944 77.3152199,34.48 80.2432199,34.48 C83.6992199,34.48 86.0992199,32.368 87.3952199,30.112 L87.3952199,30.16 C87.5392199,32.8 88.9312199,34.48 91.5232199,34.48 C92.6272199,34.48 93.7792199,34.192 94.6432199,33.664 L94.5952199,31.168 C94.2112199,31.312 93.6832199,31.408 93.2992199,31.408 C92.1472199,31.408 91.6192199,30.784 91.6192199,29.296 L91.6192199,19.36 C91.6192199,14.464 88.5472199,12.112 83.6992199,12.112 C80.6752199,12.112 78.3232199,12.64 75.6832199,14.176 Z M87.3952199,25.744 C87.1552199,29.2 84.3232199,31.216 81.5872199,31.216 C79.7152199,31.216 78.0352199,30.256 78.0352199,27.952 C78.0352199,24.928 80.7712199,24.256 83.6992199,24.256 C84.9952199,24.256 86.2432199,24.4 87.3952199,24.496 L87.3952199,25.744 Z M120.296293,34 L120.296293,30.736 L117.800293,30.736 L110.984293,23.008 L117.464293,15.856 L119.864293,15.856 L119.864293,12.544 L111.080293,12.544 L111.080293,15.856 L113.288293,15.856 L108.872293,21.088 L104.600293,15.856 L107.096293,15.856 L107.096293,12.544 L97.0162933,12.544 L97.0162933,15.856 L99.6562933,15.856 L106.376293,23.344 L99.8482933,30.736 L96.9202933,30.736 L96.9202933,34 L106.184293,34 L106.184293,30.736 L103.976293,30.736 L108.440293,25.36 L112.904293,30.736 L110.456293,30.736 L110.456293,34 L120.296293,34 Z M146.045367,15.856 L146.045367,12.544 L136.493367,12.544 L136.493367,15.856 L139.517367,15.856 L134.765367,28.912 L134.477367,28.912 L128.957367,15.856 L132.221367,15.856 L132.221367,12.544 L121.997367,12.544 L121.997367,15.856 L124.445367,15.856 L132.173367,34.048 L129.677367,40.864 L125.885367,40.864 L125.885367,44.224 L137.021367,44.224 L137.021367,40.864 L133.613367,40.864 L136.253367,34 L143.645367,15.856 L146.045367,15.856 Z" id="Galaxy" fill="#54FFBD"></path>
                <g id="mozillavr-logo" transform="translate(3.000000, 50.000000)">
                    <g id="Large-Screen">
                        <g id="mozilla">
                            <polyline id="Shape" fill="#FFFFFF" points="0 0 80 0 80 25.8440336 0 25.8440336"></polyline>
                            <path d="M73.4036975,17.0702521 L73.4460504,18.4968067 C72.9418487,18.7697479 72.3314286,18.9371429 71.742521,18.9371429 C70.4584874,18.9371429 69.7862185,18.2231933 69.6383193,17.0695798 C69.1139496,18.0134454 68.1458824,18.9364706 66.6097479,18.9364706 C65.2430252,18.9364706 63.707563,18.222521 63.707563,16.229916 C63.707563,13.9226891 65.9159664,13.377479 68.1243697,13.377479 C68.629916,13.377479 69.1764706,13.377479 69.6396639,13.4621849 L69.6396639,13.147563 C69.6396639,12.1620168 69.6396639,11.029916 68.125042,11.029916 C67.5361345,11.029916 67.0944538,11.050084 66.6527731,11.3015126 L66.3368067,12.3717647 L64.1909244,12.1196639 L64.5485714,9.93747899 C66.1889076,9.28739496 67.0729412,9.07697479 68.6292437,9.07697479 C70.6285714,9.07697479 72.3952941,10.1472269 72.3952941,12.3078992 L72.3952941,16.3979832 C72.3952941,16.9640336 72.6057143,17.1321008 73.047395,17.1321008 C73.1314286,17.1321008 73.2786555,17.1321008 73.405042,17.0689076 L73.4036975,17.0702521 Z M67.5979832,17.0285714 C68.5660504,17.0285714 69.5744538,16.2944538 69.6383193,14.7428571 C69.1966387,14.6796639 68.7334454,14.6164706 68.2917647,14.6164706 C67.3236975,14.6164706 66.4618487,14.8678992 66.4618487,15.9381513 C66.4618487,16.525042 66.7979832,17.0285714 67.5979832,17.0285714 L67.5979832,17.0285714 Z M61.2652101,4.29714286 L63.937479,4.29714286 L59.8352941,18.727395 L57.1845378,18.727395 L61.2652101,4.29714286 Z M55.7754622,4.29714286 L58.4470588,4.29714286 L54.3448739,18.727395 L51.6732773,18.727395 L55.7754622,4.29714286 Z M47.0655462,12.6655462 L49.885042,12.6655462 L49.885042,9.26789916 L47.0655462,9.26789916 L47.0655462,12.6655462 Z M47.0655462,18.727395 L49.885042,18.727395 L49.885042,15.3297479 L47.0655462,15.3297479 L47.0655462,18.727395 Z M42.4806723,16.6931092 L39.4084034,16.6931092 L44.6682353,10.6736134 L44.4578151,9.26857143 L36.107563,9.26857143 L35.770084,12.5828571 L37.7687395,12.792605 L38.1895798,11.3028571 L41.1341176,11.3028571 L35.9173109,17.3021849 L36.1915966,18.727395 L44.5008403,18.727395 L45.0689076,15.4144538 L42.9223529,15.2262185 L42.4806723,16.6937815 L42.4806723,16.6931092 Z M29.3331092,9.07966387 C32.7415126,9.07966387 34.4235294,11.3653782 34.4235294,14.0295798 C34.4235294,17.0292437 32.2151261,18.9371429 29.1865546,18.9371429 C26.2406723,18.9371429 24.2420168,17.1757983 24.2420168,14.1344538 C24.2420168,11.3660504 25.9253782,9.0789916 29.3331092,9.0789916 L29.3331092,9.07966387 Z M29.2490756,16.8611765 C30.6796639,16.8611765 31.6047059,15.7290756 31.6047059,13.9247059 C31.6047059,12.0369748 30.5741176,11.1563025 29.2907563,11.1563025 C27.902521,11.1563025 27.0184874,12.205042 27.0184874,13.9663866 C27.0184874,15.5818487 27.7983193,16.8611765 29.2490756,16.8611765 L29.2490756,16.8611765 Z M21.8016807,12.372437 C21.8016807,10.1068908 20.2245378,9.07831933 18.5626891,9.07831933 C17.0480672,9.07831933 15.9542857,9.87630252 15.450084,11.1354622 C15.0077311,9.72907563 13.7452101,9.07831933 12.3576471,9.07831933 C11.0319328,9.07831933 10.0430252,9.70823529 9.47495798,10.6944538 L9.47495798,9.26789916 L5.49915966,9.26789916 L5.49915966,11.3236975 L6.7610084,11.3236975 L6.7610084,16.6931092 L5.49915966,16.6931092 L5.49915966,18.7280672 L11.2631933,18.7280672 L11.2631933,16.692437 L9.47495798,16.692437 L9.47495798,13.3781513 C9.47495798,12.0578151 10.0221849,11.1347899 11.3048739,11.1347899 C12.3569748,11.1347899 12.925042,11.7848739 12.925042,13.4205042 L12.925042,18.727395 L16.9008403,18.727395 L16.9008403,16.692437 L15.6383193,16.692437 L15.6383193,13.3781513 C15.6383193,12.0578151 16.1647059,11.1347899 17.4467227,11.1347899 C18.5626891,11.1347899 19.1092437,11.7848739 19.1092437,13.4205042 L19.1092437,18.727395 L23.085042,18.727395 L23.085042,16.692437 L21.8010084,16.692437 L21.8010084,12.372437 L21.8016807,12.372437 Z" id="Shape" fill="#000000"></path>
                        </g>
                    </g>
                </g>
            </g>
        </g>
    </g>
</svg>