<?xml version="1.0" encoding="UTF-8" standalone="no"?>
<svg width="9px" height="20px" viewBox="0 0 9 20" version="1.1" xmlns="http://www.w3.org/2000/svg" xmlns:xlink="http://www.w3.org/1999/xlink">
    <!-- Generator: Sketch 41.2 (35397) - http://www.bohemiancoding.com/sketch -->
    <title>mobile_remote</title>
    <desc>Created with Sketch.</desc>
    <defs></defs>
    <g id="Page-1" stroke="none" stroke-width="1" fill="none" fill-rule="evenodd">
        <g id="mobile_remote" fill="#000000">
            <g id="noun_423707" transform="translate(-0.500000, 6.000000)">
                <g id="Group" transform="translate(0.000000, 0.637800)">
                    <path d="M0.9960938,0.3622 L9.003906,0.3622 L9.003906,13.344622 L0.9960938,13.344622 L0.9960938,0.3622 Z M1.9960938,1.3446219 L1.9960938,1.8446219 L1.9960938,10.344622 L7.988281,10.344622 L7.988281,1.3446219 L1.9960938,1.3446219 Z M2.9960938,2.3446219 L6.988281,2.3446219 L6.988281,9.344622 L2.9960938,9.344622 L2.9960938,2.3446219 Z M3.996094,11.352434 L3.996094,12.352434 L5.996094,12.352434 L5.996094,11.352434 L3.996094,11.352434 Z" id="Shape"></path>
                </g>
            </g>
            <g id="Group-2" transform="translate(4.500000, 3.250000) rotate(-90.000000) translate(-4.500000, -3.250000) translate(1.500000, -1.750000)">
                <path d="M3.73242188,0.833296917 C3.64604663,0.84953025 3.56480963,0.895821917 3.50390625,0.96350525 C3.33949363,1.13048775 3.33949363,1.44756442 3.50390625,1.61454692 C5.29427925,3.53538025 5.294302,6.62096358 3.50390625,8.54163025 C3.35138375,8.71277692 3.3577635,9.01737108 3.51729625,9.18099608 C3.67683063,9.34462025 3.96075794,9.33777692 4.11328044,9.16662942 C6.22297244,6.90337942 6.22297813,3.22675442 4.11328044,0.963504417 C4.03359856,0.878538583 3.92090481,0.83037775 3.80859294,0.833296083 C3.78327544,0.830796083 3.75773856,0.830796083 3.73242106,0.833296083 L3.73242188,0.833296917 Z" id="Path"></path>
                <path d="M2.36132812,1.92704692 C2.29289125,1.95290525 2.23095437,1.99828025 2.18359375,2.05725525 C2.03378988,2.22252692 2.03378988,2.51698358 2.18359375,2.68225525 C3.41645037,4.00483858 3.41648531,6.15125525 2.18359375,7.47392192 C2.03107125,7.64506858 2.037451,7.94966275 2.19698375,8.11328775 C2.35651813,8.27691192 2.64044544,8.27006858 2.79296794,8.09892108 C4.34515006,6.43367108 4.34515575,3.72250442 2.79296794,2.05725442 C2.71328606,1.97228858 2.60059231,1.92412775 2.48828044,1.92704608 C2.44629044,1.92012942 2.4033165,1.92012942 2.36132731,1.92704608 L2.36132812,1.92704692 Z" id="Path"></path>
                <path d="M1.14257813,2.99475525 C1.04740106,3.00525525 0.956056563,3.05209692 0.888671875,3.12496358 C0.72425925,3.29194608 0.72425925,3.60902275 0.888671875,3.77600525 C1.56396419,4.50042192 1.56395931,5.65567192 0.888671875,6.38017192 C0.736149375,6.55131858 0.742529125,6.85591275 0.902061875,7.01953775 C1.06159625,7.18316192 1.34552356,7.17631858 1.49804606,7.00517108 C2.49266469,5.93825442 2.49265819,4.19196275 1.49804606,3.12496275 C1.41836419,3.03999692 1.30567044,2.99183608 1.19335856,2.99475442 C1.17645044,2.99367108 1.15948544,2.99367108 1.14257731,2.99475442 L1.14257813,2.99475525 Z" id="Path"></path>
            </g>
        </g>
    </g>
</svg>